<mxfile host="Electron" modified="2023-06-15T09:03:11.227Z" agent="Mozilla/5.0 (Windows NT 10.0; Win64; x64) AppleWebKit/537.36 (KHTML, like Gecko) draw.io/21.3.7 Chrome/112.0.5615.204 Electron/24.5.0 Safari/537.36" etag="NHfRg12jFhx6zihrq2fv" version="21.3.7" type="device">
  <diagram name="Page-1" id="97916047-d0de-89f5-080d-49f4d83e522f">
    <mxGraphModel dx="2310" dy="2273" grid="1" gridSize="10" guides="1" tooltips="1" connect="1" arrows="1" fold="1" page="1" pageScale="1.5" pageWidth="1169" pageHeight="827" background="none" math="0" shadow="0">
      <root>
        <mxCell id="0" />
        <mxCell id="1" parent="0" />
        <mxCell id="2" value="backend" style="rounded=1;fillColor=#10739E;strokeColor=none;shadow=1;gradientColor=none;fontStyle=1;fontColor=#FFFFFF;fontSize=14;" parent="1" vertex="1">
          <mxGeometry x="730" y="240" width="200" height="60" as="geometry" />
        </mxCell>
        <mxCell id="6" value="endpoints" style="rounded=1;fillColor=#10739E;strokeColor=none;shadow=1;gradientColor=none;fontStyle=1;fontColor=#FFFFFF;fontSize=14;" parent="1" vertex="1">
          <mxGeometry x="380" y="530" width="200" height="60" as="geometry" />
        </mxCell>
        <mxCell id="32" value="" style="edgeStyle=elbowEdgeStyle;elbow=vertical;strokeWidth=4;endArrow=block;endFill=1;fontStyle=1;strokeColor=#23445D;exitX=0.5;exitY=1;exitDx=0;exitDy=0;" parent="1" source="2" target="6" edge="1">
          <mxGeometry x="22" y="165.5" width="100" height="100" as="geometry">
            <mxPoint x="772" y="405.5" as="sourcePoint" />
            <mxPoint x="122" y="165.5" as="targetPoint" />
            <Array as="points">
              <mxPoint x="810" y="430" />
              <mxPoint x="670" y="430" />
              <mxPoint x="970" y="430" />
            </Array>
          </mxGeometry>
        </mxCell>
        <mxCell id="crBfl8uqIK3-YDZzxL5N-55" value="" style="edgeStyle=elbowEdgeStyle;elbow=vertical;strokeWidth=4;endArrow=block;endFill=1;fontStyle=1;strokeColor=#23445D;exitX=0.5;exitY=1;exitDx=0;exitDy=0;entryX=0.5;entryY=0;entryDx=0;entryDy=0;" parent="1" source="2" target="crBfl8uqIK3-YDZzxL5N-65" edge="1">
          <mxGeometry x="20" y="166" width="100" height="100" as="geometry">
            <mxPoint x="770" y="405.5" as="sourcePoint" />
            <mxPoint x="1720" y="460" as="targetPoint" />
            <Array as="points">
              <mxPoint x="1080" y="430" />
              <mxPoint x="980" y="429" />
            </Array>
          </mxGeometry>
        </mxCell>
        <mxCell id="crBfl8uqIK3-YDZzxL5N-57" value="v1" style="rounded=1;fillColor=#10739E;strokeColor=none;shadow=1;gradientColor=none;fontStyle=1;fontColor=#FFFFFF;fontSize=14;" parent="1" vertex="1">
          <mxGeometry x="380" y="634.5" width="200" height="60" as="geometry" />
        </mxCell>
        <mxCell id="crBfl8uqIK3-YDZzxL5N-58" value="ep_api" style="rounded=1;fillColor=#10739E;strokeColor=none;shadow=1;gradientColor=none;fontStyle=1;fontColor=#FFFFFF;fontSize=14;" parent="1" vertex="1">
          <mxGeometry x="300" y="800" width="200" height="60" as="geometry" />
        </mxCell>
        <mxCell id="crBfl8uqIK3-YDZzxL5N-59" value="ep_database" style="rounded=1;fillColor=#10739E;strokeColor=none;shadow=1;gradientColor=none;fontStyle=1;fontColor=#FFFFFF;fontSize=14;" parent="1" vertex="1">
          <mxGeometry x="610" y="800" width="200" height="60" as="geometry" />
        </mxCell>
        <mxCell id="crBfl8uqIK3-YDZzxL5N-60" value="" style="edgeStyle=elbowEdgeStyle;elbow=vertical;strokeWidth=4;endArrow=block;endFill=1;fontStyle=1;strokeColor=#23445D;exitX=0.5;exitY=1;exitDx=0;exitDy=0;entryX=0.5;entryY=0;entryDx=0;entryDy=0;" parent="1" source="crBfl8uqIK3-YDZzxL5N-57" target="crBfl8uqIK3-YDZzxL5N-59" edge="1">
          <mxGeometry x="-372" y="804.5" width="100" height="100" as="geometry">
            <mxPoint x="380" y="904.5" as="sourcePoint" />
            <mxPoint x="1328" y="1098.5" as="targetPoint" />
            <Array as="points">
              <mxPoint x="720" y="754.5" />
            </Array>
          </mxGeometry>
        </mxCell>
        <mxCell id="crBfl8uqIK3-YDZzxL5N-61" value="" style="edgeStyle=elbowEdgeStyle;elbow=vertical;strokeWidth=4;endArrow=block;endFill=1;fontStyle=1;strokeColor=#23445D;exitX=0.5;exitY=1;exitDx=0;exitDy=0;entryX=0.5;entryY=0;entryDx=0;entryDy=0;" parent="1" source="crBfl8uqIK3-YDZzxL5N-57" target="crBfl8uqIK3-YDZzxL5N-58" edge="1">
          <mxGeometry x="-362" y="814.5" width="100" height="100" as="geometry">
            <mxPoint x="710" y="714.5" as="sourcePoint" />
            <mxPoint x="920" y="804.5" as="targetPoint" />
            <Array as="points">
              <mxPoint x="390" y="750" />
              <mxPoint x="470" y="750" />
              <mxPoint x="660" y="754.5" />
              <mxPoint x="730" y="764.5" />
            </Array>
          </mxGeometry>
        </mxCell>
        <mxCell id="crBfl8uqIK3-YDZzxL5N-62" value="aep_clan" style="rounded=1;fillColor=#10739E;strokeColor=none;shadow=1;gradientColor=none;fontStyle=1;fontColor=#FFFFFF;fontSize=14;" parent="1" vertex="1">
          <mxGeometry x="150" y="925.5" width="200" height="60" as="geometry" />
        </mxCell>
        <mxCell id="crBfl8uqIK3-YDZzxL5N-64" value="" style="edgeStyle=elbowEdgeStyle;elbow=vertical;strokeWidth=4;endArrow=block;endFill=1;fontStyle=1;strokeColor=#23445D;exitX=0.5;exitY=1;exitDx=0;exitDy=0;entryX=0.5;entryY=0;entryDx=0;entryDy=0;" parent="1" source="crBfl8uqIK3-YDZzxL5N-58" target="crBfl8uqIK3-YDZzxL5N-62" edge="1">
          <mxGeometry x="-412" y="994.5" width="100" height="100" as="geometry">
            <mxPoint x="650" y="884.5" as="sourcePoint" />
            <mxPoint x="440" y="974.5" as="targetPoint" />
            <Array as="points">
              <mxPoint x="290" y="890" />
              <mxPoint x="680" y="944.5" />
            </Array>
          </mxGeometry>
        </mxCell>
        <mxCell id="crBfl8uqIK3-YDZzxL5N-65" value="routine" style="rounded=1;fillColor=#10739E;strokeColor=none;shadow=1;gradientColor=none;fontStyle=1;fontColor=#FFFFFF;fontSize=14;" parent="1" vertex="1">
          <mxGeometry x="1115" y="530" width="200" height="60" as="geometry" />
        </mxCell>
        <mxCell id="crBfl8uqIK3-YDZzxL5N-66" value="" style="edgeStyle=elbowEdgeStyle;elbow=vertical;strokeWidth=4;endArrow=block;endFill=1;fontStyle=1;strokeColor=#23445D;exitX=0.5;exitY=1;exitDx=0;exitDy=0;entryX=0.5;entryY=0;entryDx=0;entryDy=0;" parent="1" source="6" target="crBfl8uqIK3-YDZzxL5N-57" edge="1">
          <mxGeometry x="-582" y="804.5" width="100" height="100" as="geometry">
            <mxPoint x="490" y="704.5" as="sourcePoint" />
            <mxPoint x="700" y="794.5" as="targetPoint" />
            <Array as="points" />
          </mxGeometry>
        </mxCell>
        <mxCell id="crBfl8uqIK3-YDZzxL5N-67" value="v1" style="rounded=1;fillColor=#10739E;strokeColor=none;shadow=1;gradientColor=none;fontStyle=1;fontColor=#FFFFFF;fontSize=14;" parent="1" vertex="1">
          <mxGeometry x="1115" y="634.5" width="200" height="60" as="geometry" />
        </mxCell>
        <mxCell id="crBfl8uqIK3-YDZzxL5N-68" value="" style="edgeStyle=elbowEdgeStyle;elbow=vertical;strokeWidth=4;endArrow=block;endFill=1;fontStyle=1;strokeColor=#23445D;exitX=0.5;exitY=1;exitDx=0;exitDy=0;entryX=0.5;entryY=0;entryDx=0;entryDy=0;" parent="1" source="crBfl8uqIK3-YDZzxL5N-65" target="crBfl8uqIK3-YDZzxL5N-67" edge="1">
          <mxGeometry x="-547" y="814.5" width="100" height="100" as="geometry">
            <mxPoint x="515" y="600.5" as="sourcePoint" />
            <mxPoint x="515" y="644.5" as="targetPoint" />
            <Array as="points" />
          </mxGeometry>
        </mxCell>
        <mxCell id="crBfl8uqIK3-YDZzxL5N-69" value="rt_api" style="rounded=1;fillColor=#10739E;strokeColor=none;shadow=1;gradientColor=none;fontStyle=1;fontColor=#FFFFFF;fontSize=14;" parent="1" vertex="1">
          <mxGeometry x="945" y="784.5" width="200" height="60" as="geometry" />
        </mxCell>
        <mxCell id="crBfl8uqIK3-YDZzxL5N-71" value="rt_calculations" style="rounded=1;fillColor=#10739E;strokeColor=none;shadow=1;gradientColor=none;fontStyle=1;fontColor=#FFFFFF;fontSize=14;" parent="1" vertex="1">
          <mxGeometry x="1305" y="784.5" width="200" height="60" as="geometry" />
        </mxCell>
        <mxCell id="crBfl8uqIK3-YDZzxL5N-72" value="" style="edgeStyle=elbowEdgeStyle;elbow=vertical;strokeWidth=4;endArrow=block;endFill=1;fontStyle=1;strokeColor=#23445D;exitX=0.5;exitY=1;exitDx=0;exitDy=0;entryX=0.5;entryY=0;entryDx=0;entryDy=0;" parent="1" source="crBfl8uqIK3-YDZzxL5N-67" target="crBfl8uqIK3-YDZzxL5N-71" edge="1">
          <mxGeometry x="-557" y="804.5" width="100" height="100" as="geometry">
            <mxPoint x="515" y="704.5" as="sourcePoint" />
            <mxPoint x="725" y="794.5" as="targetPoint" />
            <Array as="points">
              <mxPoint x="1325" y="745" />
              <mxPoint x="1355" y="744.5" />
              <mxPoint x="1355" y="714.5" />
            </Array>
          </mxGeometry>
        </mxCell>
        <mxCell id="crBfl8uqIK3-YDZzxL5N-73" value="" style="edgeStyle=elbowEdgeStyle;elbow=vertical;strokeWidth=4;endArrow=block;endFill=1;fontStyle=1;strokeColor=#23445D;exitX=0.5;exitY=1;exitDx=0;exitDy=0;entryX=0.5;entryY=0;entryDx=0;entryDy=0;" parent="1" source="crBfl8uqIK3-YDZzxL5N-67" target="crBfl8uqIK3-YDZzxL5N-69" edge="1">
          <mxGeometry x="-547" y="814.5" width="100" height="100" as="geometry">
            <mxPoint x="1225" y="704.5" as="sourcePoint" />
            <mxPoint x="1415" y="794.5" as="targetPoint" />
            <Array as="points">
              <mxPoint x="1185" y="744.5" />
              <mxPoint x="1365" y="724.5" />
            </Array>
          </mxGeometry>
        </mxCell>
        <mxCell id="crBfl8uqIK3-YDZzxL5N-75" value="" style="shape=image;verticalLabelPosition=bottom;labelBackgroundColor=default;verticalAlign=top;aspect=fixed;imageAspect=0;image=https://user-images.githubusercontent.com/727262/40395108-6bcc327a-5e1e-11e8-9f76-3917983b8563.png;" parent="1" vertex="1">
          <mxGeometry x="840" y="270" width="214.92" height="190" as="geometry" />
        </mxCell>
        <mxCell id="crBfl8uqIK3-YDZzxL5N-77" value="&lt;font style=&quot;font-size: 31px;&quot;&gt;File System&lt;/font&gt;" style="text;html=1;align=center;verticalAlign=middle;resizable=0;points=[];autosize=1;strokeColor=none;fillColor=none;" parent="1" vertex="1">
          <mxGeometry x="1030" y="350" width="190" height="50" as="geometry" />
        </mxCell>
        <mxCell id="crBfl8uqIK3-YDZzxL5N-79" value="logger" style="rounded=1;fillColor=#10739E;strokeColor=none;shadow=1;gradientColor=none;fontStyle=1;fontColor=#FFFFFF;fontSize=14;" parent="1" vertex="1">
          <mxGeometry x="660" y="530" width="200" height="60" as="geometry" />
        </mxCell>
        <mxCell id="crBfl8uqIK3-YDZzxL5N-80" value="" style="edgeStyle=elbowEdgeStyle;elbow=vertical;strokeWidth=4;endArrow=block;endFill=1;fontStyle=1;strokeColor=#23445D;exitX=0.5;exitY=1;exitDx=0;exitDy=0;entryX=0.5;entryY=0;entryDx=0;entryDy=0;" parent="1" source="2" target="crBfl8uqIK3-YDZzxL5N-79" edge="1">
          <mxGeometry x="30" y="176" width="100" height="100" as="geometry">
            <mxPoint x="782" y="276" as="sourcePoint" />
            <mxPoint x="1150" y="530" as="targetPoint" />
            <Array as="points">
              <mxPoint x="830" y="430" />
              <mxPoint x="1210" y="430" />
              <mxPoint x="990" y="439" />
            </Array>
          </mxGeometry>
        </mxCell>
        <mxCell id="crBfl8uqIK3-YDZzxL5N-97" value="dbep_clan" style="rounded=1;fillColor=#10739E;strokeColor=none;shadow=1;gradientColor=none;fontStyle=1;fontColor=#FFFFFF;fontSize=14;" parent="1" vertex="1">
          <mxGeometry x="460" y="925.5" width="200" height="60" as="geometry" />
        </mxCell>
        <mxCell id="crBfl8uqIK3-YDZzxL5N-98" value="dbep_person" style="rounded=1;fillColor=#10739E;strokeColor=none;shadow=1;gradientColor=none;fontStyle=1;fontColor=#FFFFFF;fontSize=14;" parent="1" vertex="1">
          <mxGeometry x="740" y="925.5" width="200" height="60" as="geometry" />
        </mxCell>
        <mxCell id="crBfl8uqIK3-YDZzxL5N-99" value="" style="edgeStyle=elbowEdgeStyle;elbow=vertical;strokeWidth=4;endArrow=block;endFill=1;fontStyle=1;strokeColor=#23445D;exitX=0.5;exitY=1;exitDx=0;exitDy=0;entryX=0.5;entryY=0;entryDx=0;entryDy=0;" parent="1" source="crBfl8uqIK3-YDZzxL5N-59" target="crBfl8uqIK3-YDZzxL5N-98" edge="1">
          <mxGeometry x="-522" y="820" width="100" height="100" as="geometry">
            <mxPoint x="550" y="720.5" as="sourcePoint" />
            <mxPoint x="720" y="810.5" as="targetPoint" />
            <Array as="points" />
          </mxGeometry>
        </mxCell>
        <mxCell id="crBfl8uqIK3-YDZzxL5N-100" value="" style="edgeStyle=elbowEdgeStyle;elbow=vertical;strokeWidth=4;endArrow=block;endFill=1;fontStyle=1;strokeColor=#23445D;exitX=0.5;exitY=1;exitDx=0;exitDy=0;" parent="1" source="crBfl8uqIK3-YDZzxL5N-59" target="crBfl8uqIK3-YDZzxL5N-97" edge="1">
          <mxGeometry x="-512" y="830" width="100" height="100" as="geometry">
            <mxPoint x="720" y="870.5" as="sourcePoint" />
            <mxPoint x="860" y="915.5" as="targetPoint" />
            <Array as="points" />
          </mxGeometry>
        </mxCell>
        <mxCell id="sljdsu7152MiVo1gnj1H-32" value="" style="edgeStyle=elbowEdgeStyle;elbow=vertical;strokeWidth=4;endArrow=block;endFill=1;fontStyle=1;strokeColor=#23445D;exitX=0.5;exitY=1;exitDx=0;exitDy=0;entryX=0.5;entryY=0;entryDx=0;entryDy=0;" edge="1" parent="1" source="2" target="sljdsu7152MiVo1gnj1H-33">
          <mxGeometry x="40" y="186" width="100" height="100" as="geometry">
            <mxPoint x="1150" y="300" as="sourcePoint" />
            <mxPoint x="2460" y="470" as="targetPoint" />
            <Array as="points">
              <mxPoint x="840" y="430" />
              <mxPoint x="1130" y="430" />
              <mxPoint x="1940" y="430" />
              <mxPoint x="1220" y="440" />
              <mxPoint x="1000" y="449" />
            </Array>
          </mxGeometry>
        </mxCell>
        <mxCell id="sljdsu7152MiVo1gnj1H-33" value="tools" style="rounded=1;fillColor=#10739E;strokeColor=none;shadow=1;gradientColor=none;fontStyle=1;fontColor=#FFFFFF;fontSize=14;" vertex="1" parent="1">
          <mxGeometry x="877" y="530" width="200" height="60" as="geometry" />
        </mxCell>
      </root>
    </mxGraphModel>
  </diagram>
</mxfile>
